<svg width="222" height="72" viewBox="0 0 222 72" fill="none" xmlns="http://www.w3.org/2000/svg">
<g clip-path="url(#clip0_2001_15)">
<rect x="11" y="44" width="15" height="51" rx="7.5" transform="rotate(-90 11 44)" stroke="white" stroke-width="4"/>
<rect x="11" y="44" width="15" height="51" rx="7.5" transform="rotate(-90 11 44)" stroke="white" stroke-width="4"/>
<rect x="29" y="11" width="15" height="51" rx="7.5" stroke="white" stroke-width="4"/>
<path d="M92.04 26.76C91.5067 25.9867 90.7867 25.4267 89.88 25.08C89 24.7067 88.0667 24.52 87.08 24.52C86.4933 24.52 85.92 24.5867 85.36 24.72C84.8267 24.8533 84.3333 25.0667 83.88 25.36C83.4533 25.6533 83.1067 26.04 82.84 26.52C82.5733 26.9733 82.44 27.52 82.44 28.16C82.44 29.12 82.7733 29.8533 83.44 30.36C84.1067 30.8667 84.9333 31.3067 85.92 31.68C86.9067 32.0533 87.9867 32.4133 89.16 32.76C90.3333 33.1067 91.4133 33.5867 92.4 34.2C93.3867 34.8133 94.2133 35.6267 94.88 36.64C95.5467 37.6533 95.88 39 95.88 40.68C95.88 42.2 95.6 43.5333 95.04 44.68C94.48 45.8 93.72 46.7333 92.76 47.48C91.8267 48.2267 90.7333 48.7867 89.48 49.16C88.2267 49.5333 86.9067 49.72 85.52 49.72C83.76 49.72 82.0667 49.4267 80.44 48.84C78.8133 48.2533 77.4133 47.2667 76.24 45.88L80.04 42.2C80.6533 43.1333 81.4533 43.8667 82.44 44.4C83.4533 44.9067 84.52 45.16 85.64 45.16C86.2267 45.16 86.8133 45.08 87.4 44.92C87.9867 44.76 88.52 44.52 89 44.2C89.48 43.88 89.8667 43.48 90.16 43C90.4533 42.4933 90.6 41.92 90.6 41.28C90.6 40.24 90.2667 39.44 89.6 38.88C88.9333 38.32 88.1067 37.8533 87.12 37.48C86.1333 37.08 85.0533 36.7067 83.88 36.36C82.7067 36.0133 81.6267 35.5467 80.64 34.96C79.6533 34.3467 78.8267 33.5467 78.16 32.56C77.4933 31.5467 77.16 30.2 77.16 28.52C77.16 27.0533 77.4533 25.7867 78.04 24.72C78.6533 23.6533 79.44 22.7733 80.4 22.08C81.3867 21.36 82.5067 20.8267 83.76 20.48C85.0133 20.1333 86.2933 19.96 87.6 19.96C89.0933 19.96 90.5333 20.1867 91.92 20.64C93.3333 21.0933 94.6 21.84 95.72 22.88L92.04 26.76ZM101.009 20.68H106.049V49H101.009V20.68ZM112.382 20.68H120.062L127.622 40.52L135.262 20.68H142.862V49H138.062V25.48H137.982L129.382 49H125.862L117.262 25.48H117.182V49H112.382V20.68ZM149.653 20.68H158.053C159.359 20.68 160.599 20.8133 161.773 21.08C162.973 21.32 164.026 21.7467 164.933 22.36C165.866 22.9467 166.599 23.7467 167.133 24.76C167.693 25.7467 167.973 26.9733 167.973 28.44C167.973 29.9867 167.679 31.2667 167.093 32.28C166.506 33.2933 165.746 34.0933 164.813 34.68C163.906 35.2667 162.906 35.68 161.813 35.92C160.719 36.16 159.679 36.28 158.693 36.28H153.013V49H149.653V20.68ZM153.013 33.16H158.693C160.373 33.16 161.733 32.7867 162.773 32.04C163.839 31.2667 164.373 30.08 164.373 28.48C164.373 26.88 163.839 25.7067 162.773 24.96C161.733 24.1867 160.373 23.8 158.693 23.8H153.013V33.16ZM173.084 18.76H176.204V49H173.084V18.76ZM199.133 45.6C198.013 47.04 196.786 48.0533 195.453 48.64C194.12 49.2 192.573 49.48 190.813 49.48C189.346 49.48 188.026 49.2267 186.853 48.72C185.68 48.1867 184.68 47.48 183.853 46.6C183.053 45.72 182.426 44.68 181.973 43.48C181.546 42.28 181.333 41 181.333 39.64C181.333 38.2 181.573 36.88 182.053 35.68C182.533 34.4533 183.2 33.4133 184.053 32.56C184.906 31.68 185.92 31 187.093 30.52C188.266 30.04 189.546 29.8 190.933 29.8C192.24 29.8 193.44 30.0267 194.533 30.48C195.626 30.9067 196.56 31.5467 197.333 32.4C198.133 33.2267 198.746 34.2533 199.173 35.48C199.6 36.68 199.813 38.0533 199.813 39.6V40.6H184.693C184.746 41.4 184.933 42.1733 185.253 42.92C185.6 43.64 186.04 44.28 186.573 44.84C187.106 45.3733 187.733 45.8 188.453 46.12C189.173 46.44 189.96 46.6 190.813 46.6C192.173 46.6 193.32 46.36 194.253 45.88C195.186 45.4 196.026 44.6933 196.773 43.76L199.133 45.6ZM196.453 37.96C196.4 36.36 195.88 35.08 194.893 34.12C193.906 33.16 192.546 32.68 190.813 32.68C189.08 32.68 187.68 33.16 186.613 34.12C185.546 35.08 184.906 36.36 184.693 37.96H196.453ZM205.04 44.08C205.653 44.8533 206.32 45.4667 207.04 45.92C207.786 46.3733 208.72 46.6 209.84 46.6C210.32 46.6 210.8 46.5467 211.28 46.44C211.786 46.3333 212.24 46.16 212.64 45.92C213.04 45.68 213.36 45.3867 213.6 45.04C213.84 44.6667 213.96 44.2267 213.96 43.72C213.96 43.2133 213.84 42.8 213.6 42.48C213.386 42.16 213.093 41.8933 212.72 41.68C212.346 41.44 211.92 41.2533 211.44 41.12C210.96 40.9867 210.466 40.8667 209.96 40.76C209.08 40.5733 208.24 40.36 207.44 40.12C206.64 39.88 205.933 39.5733 205.32 39.2C204.733 38.8 204.253 38.2933 203.88 37.68C203.533 37.0667 203.36 36.28 203.36 35.32C203.36 34.4133 203.56 33.6133 203.96 32.92C204.36 32.2267 204.893 31.6533 205.56 31.2C206.226 30.7467 206.973 30.4 207.8 30.16C208.626 29.92 209.48 29.8 210.36 29.8C211.693 29.8 212.92 30.0667 214.04 30.6C215.186 31.1333 216.08 32 216.72 33.2L214.12 34.92C213.72 34.2533 213.186 33.72 212.52 33.32C211.88 32.8933 211.093 32.68 210.16 32.68C209.733 32.68 209.293 32.7333 208.84 32.84C208.413 32.9467 208.026 33.1067 207.68 33.32C207.333 33.5333 207.04 33.8133 206.8 34.16C206.586 34.48 206.48 34.8533 206.48 35.28C206.48 35.68 206.6 36.0267 206.84 36.32C207.106 36.5867 207.453 36.8267 207.88 37.04C208.333 37.2533 208.84 37.44 209.4 37.6C209.986 37.76 210.586 37.8933 211.2 38C212.026 38.16 212.813 38.3733 213.56 38.64C214.306 38.88 214.96 39.2133 215.52 39.64C216.08 40.0667 216.52 40.6 216.84 41.24C217.16 41.88 217.32 42.6667 217.32 43.6C217.32 44.6667 217.106 45.5733 216.68 46.32C216.253 47.0667 215.68 47.68 214.96 48.16C214.266 48.6133 213.466 48.9467 212.56 49.16C211.68 49.3733 210.773 49.48 209.84 49.48C208.24 49.48 206.853 49.24 205.68 48.76C204.533 48.2533 203.493 47.3333 202.56 46L205.04 44.08Z" fill="white"/>
</g>
<defs>
<clipPath id="clip0_2001_15">
<rect width="72" height="222" fill="white" transform="matrix(0 -1 1 0 0 72)"/>
</clipPath>
</defs>
</svg>
